<svg xmlns="http://www.w3.org/2000/svg" xmlns:xlink="http://www.w3.org/1999/xlink" width="500" zoomAndPan="magnify" viewBox="0 0 375 149.999998" height="200" preserveAspectRatio="xMidYMid meet" version="1.0"><defs><g/><clipPath id="3bcaf29161"><path d="M 136.457031 7.757812 L 238.457031 7.757812 L 238.457031 96.257812 L 136.457031 96.257812 Z M 136.457031 7.757812 " clip-rule="nonzero"/></clipPath></defs><g clip-path="url(#3bcaf29161)"><path fill="#11100e" d="M 140.484375 11.179688 L 234.429688 11.179688 C 234.742188 11.179688 234.996094 11.433594 234.996094 11.746094 L 234.996094 62.480469 L 158.871094 62.480469 C 158.425781 62.289062 157.96875 62.132812 157.496094 62 C 159.757812 57.171875 164.640625 53.8125 170.308594 53.8125 L 173.054688 53.8125 C 178.9375 53.8125 184.292969 50.855469 187.511719 46.191406 L 187.773438 48.882812 L 218.179688 48.882812 L 218.179688 29.542969 L 193.523438 29.542969 C 192.582031 29.542969 191.820312 30.304688 191.820312 31.25 C 191.820312 32.191406 192.582031 32.953125 193.523438 32.953125 L 214.773438 32.953125 L 214.773438 38.113281 L 195.957031 38.113281 C 195.015625 38.113281 194.253906 38.875 194.253906 39.816406 C 194.253906 40.761719 195.015625 41.523438 195.957031 41.523438 L 214.773438 41.523438 L 214.773438 45.46875 L 190.859375 45.46875 L 190.257812 39.382812 C 190.257812 39.378906 190.257812 39.371094 190.253906 39.363281 L 188.441406 21.070312 L 178.730469 21.070312 C 177.789062 21.070312 177.023438 21.832031 177.023438 22.777344 C 177.023438 23.71875 177.789062 24.480469 178.730469 24.480469 L 185.355469 24.480469 L 186.839844 39.464844 L 186.71875 39.921875 C 185.050781 46.089844 179.433594 50.398438 173.054688 50.398438 L 170.308594 50.398438 C 162.878906 50.398438 156.53125 55.050781 153.96875 61.59375 C 152.574219 61.652344 151.25 61.957031 150.03125 62.480469 L 139.917969 62.480469 L 139.917969 11.746094 C 139.917969 11.429688 140.164062 11.179688 140.484375 11.179688 Z M 234.429688 72.488281 L 165.667969 72.488281 C 165.59375 70.003906 164.71875 67.722656 163.285156 65.890625 L 234.996094 65.890625 L 234.996094 71.921875 C 234.996094 72.226562 234.734375 72.488281 234.429688 72.488281 Z M 198.53125 86.457031 L 176.382812 86.457031 L 176.382812 75.902344 L 198.53125 75.902344 Z M 154.894531 72.300781 C 154.894531 72.550781 154.695312 72.746094 154.449219 72.746094 C 154.207031 72.746094 154.007812 72.550781 154.007812 72.300781 L 154.007812 70.136719 C 154.007812 69.894531 154.207031 69.695312 154.449219 69.695312 C 154.695312 69.695312 154.894531 69.894531 154.894531 70.136719 Z M 162.277344 84.996094 C 162.277344 89.316406 158.765625 92.832031 154.449219 92.832031 C 150.132812 92.832031 146.625 89.316406 146.625 84.996094 L 146.625 74.238281 C 146.625 74.222656 146.628906 74.210938 146.628906 74.199219 C 146.628906 74.179688 146.625 74.167969 146.625 74.152344 L 146.625 72.820312 C 146.625 68.996094 149.375 65.800781 153.003906 65.121094 C 152.921875 65.625 152.855469 66.136719 152.816406 66.660156 C 151.511719 67.273438 150.601562 68.59375 150.601562 70.136719 L 150.601562 72.300781 C 150.601562 73.8125 151.480469 75.109375 152.746094 75.742188 L 152.746094 79.957031 C 152.746094 80.902344 153.507812 81.660156 154.449219 81.660156 C 155.390625 81.660156 156.15625 80.902344 156.15625 79.957031 L 156.15625 75.742188 C 157.421875 75.109375 158.300781 73.8125 158.300781 72.300781 L 158.300781 70.136719 C 158.300781 68.652344 157.449219 67.378906 156.21875 66.734375 C 156.265625 66.226562 156.332031 65.730469 156.429688 65.246094 C 159.789062 66.125 162.277344 69.183594 162.277344 72.820312 Z M 139.917969 71.921875 L 139.917969 65.890625 L 145.617188 65.890625 C 144.183594 67.722656 143.304688 70.003906 143.234375 72.488281 L 140.484375 72.488281 C 140.171875 72.488281 139.917969 72.234375 139.917969 71.921875 Z M 140.484375 75.902344 L 143.214844 75.902344 L 143.214844 84.996094 C 143.214844 91.199219 148.257812 96.25 154.449219 96.25 C 160.644531 96.25 165.683594 91.199219 165.683594 84.996094 L 165.683594 75.902344 L 172.976562 75.902344 L 172.976562 86.457031 L 167.582031 86.457031 C 166.640625 86.457031 165.878906 87.222656 165.878906 88.164062 C 165.878906 89.105469 166.640625 89.871094 167.582031 89.871094 L 207.332031 89.871094 C 208.273438 89.871094 209.035156 89.105469 209.035156 88.164062 C 209.035156 87.222656 208.273438 86.457031 207.332031 86.457031 L 201.9375 86.457031 L 201.9375 75.902344 L 234.429688 75.902344 C 236.621094 75.902344 238.402344 74.113281 238.402344 71.921875 L 238.402344 11.746094 C 238.402344 9.550781 236.621094 7.765625 234.429688 7.765625 L 140.484375 7.765625 C 138.292969 7.765625 136.507812 9.550781 136.507812 11.746094 L 136.507812 71.921875 C 136.507812 74.113281 138.292969 75.902344 140.484375 75.902344 " fill-opacity="1" fill-rule="nonzero"/></g><path fill="#11100e" d="M 210.160156 51.757812 C 208.109375 51.757812 206.449219 53.421875 206.449219 55.476562 C 206.449219 57.53125 208.109375 59.199219 210.160156 59.199219 C 212.214844 59.199219 213.875 57.53125 213.875 55.476562 C 213.875 53.421875 212.214844 51.757812 210.160156 51.757812 " fill-opacity="1" fill-rule="nonzero"/><path fill="#11100e" d="M 198.28125 51.757812 C 196.226562 51.757812 194.5625 53.421875 194.5625 55.476562 C 194.5625 57.53125 196.226562 59.199219 198.28125 59.199219 C 200.328125 59.199219 201.992188 57.53125 201.992188 55.476562 C 201.992188 53.421875 200.328125 51.757812 198.28125 51.757812 " fill-opacity="1" fill-rule="nonzero"/><path fill="#11100e" d="M 144.921875 30.96875 L 167.582031 30.96875 C 168.523438 30.96875 169.285156 30.207031 169.285156 29.265625 C 169.285156 28.320312 168.523438 27.558594 167.582031 27.558594 L 144.921875 27.558594 C 143.980469 27.558594 143.214844 28.320312 143.214844 29.265625 C 143.214844 30.207031 143.980469 30.96875 144.921875 30.96875 " fill-opacity="1" fill-rule="nonzero"/><path fill="#11100e" d="M 144.921875 41.3125 L 167.582031 41.3125 C 168.523438 41.3125 169.285156 40.546875 169.285156 39.605469 C 169.285156 38.664062 168.523438 37.898438 167.582031 37.898438 L 144.921875 37.898438 C 143.980469 37.898438 143.214844 38.664062 143.214844 39.605469 C 143.214844 40.546875 143.980469 41.3125 144.921875 41.3125 " fill-opacity="1" fill-rule="nonzero"/><g fill="#000000" fill-opacity="1"><g transform="translate(62.194673, 130.082166)"><g><path d="M 3.597656 -4.859375 L 6.007812 -10.941406 L 8.398438 -4.859375 Z M 11.796875 0 L 6.007812 -14.128906 L 0.195312 0 L 1.671875 0 L 3.089844 -3.597656 L 8.902344 -3.597656 L 10.320312 0 Z M 11.796875 0 "/></g></g></g><g fill="#000000" fill-opacity="1"><g transform="translate(76.615522, 130.082166)"><g><path d="M 2.816406 -1.359375 L 2.816406 -13.21875 L 1.457031 -13.21875 L 1.457031 0 L 7.542969 0 L 7.542969 -1.359375 Z M 2.816406 -1.359375 "/></g></g></g><g fill="#000000" fill-opacity="1"><g transform="translate(86.974743, 130.082166)"><g><path d="M 9.308594 0 L 9.308594 -1.261719 L 2.816406 -1.261719 L 2.816406 -5.96875 L 9.117188 -5.96875 L 9.117188 -7.25 L 2.816406 -7.25 L 2.816406 -11.953125 L 9.308594 -11.953125 L 9.308594 -13.21875 L 1.457031 -13.21875 L 1.457031 0 Z M 9.308594 0 "/></g></g></g><g fill="#000000" fill-opacity="1"><g transform="translate(100.171265, 130.082166)"><g><path d="M 9.699219 0 L 11.371094 0 L 6.726562 -6.609375 L 11.371094 -13.21875 L 9.699219 -13.21875 L 5.890625 -7.582031 L 2.078125 -13.21875 L 0.390625 -13.21875 L 5.054688 -6.589844 L 0.40625 0 L 2.078125 0 L 5.890625 -5.636719 Z M 9.699219 0 "/></g></g></g><g fill="#000000" fill-opacity="1"><g transform="translate(114.378342, 130.082166)"><g><path d="M 3.597656 -4.859375 L 6.007812 -10.941406 L 8.398438 -4.859375 Z M 11.796875 0 L 6.007812 -14.128906 L 0.195312 0 L 1.671875 0 L 3.089844 -3.597656 L 8.902344 -3.597656 L 10.320312 0 Z M 11.796875 0 "/></g></g></g><g fill="#000000" fill-opacity="1"><g transform="translate(128.799194, 130.082166)"><g><path d="M 2.816406 -9.738281 L 10.242188 0.816406 L 10.242188 -13.21875 L 8.882812 -13.21875 L 8.882812 -3.5 L 1.457031 -14.054688 L 1.457031 0 L 2.816406 0 Z M 2.816406 -9.738281 "/></g></g></g><g fill="#000000" fill-opacity="1"><g transform="translate(142.928542, 130.082166)"><g><path d="M 11.71875 -6.609375 C 11.71875 -7.5625 11.527344 -8.4375 11.175781 -9.25 C 10.828125 -10.066406 10.339844 -10.769531 9.738281 -11.351562 C 9.117188 -11.933594 8.398438 -12.382812 7.582031 -12.710938 C 6.746094 -13.042969 5.851562 -13.21875 4.917969 -13.21875 L 1.457031 -13.21875 L 1.457031 0 L 4.917969 0 C 5.851562 0 6.746094 -0.15625 7.582031 -0.484375 C 8.398438 -0.816406 9.117188 -1.28125 9.738281 -1.867188 C 10.339844 -2.449219 10.828125 -3.128906 11.175781 -3.945312 C 11.527344 -4.761719 11.71875 -5.636719 11.71875 -6.609375 Z M 10.398438 -6.609375 C 10.398438 -5.09375 9.855469 -3.828125 8.804688 -2.835938 C 7.753906 -1.847656 6.472656 -1.359375 4.957031 -1.359375 L 2.816406 -1.359375 L 2.816406 -11.855469 L 4.957031 -11.855469 C 6.472656 -11.855469 7.753906 -11.351562 8.804688 -10.378906 C 9.855469 -9.367188 10.398438 -8.105469 10.398438 -6.609375 Z M 10.398438 -6.609375 "/></g></g></g><g fill="#000000" fill-opacity="1"><g transform="translate(157.951828, 130.082166)"><g><path d="M 2.816406 -6.53125 L 2.816406 -11.914062 L 5.890625 -11.914062 C 6.6875 -11.914062 7.328125 -11.664062 7.8125 -11.15625 C 8.28125 -10.652344 8.53125 -10.03125 8.53125 -9.25 C 8.53125 -8.472656 8.28125 -7.832031 7.773438 -7.308594 C 7.269531 -6.785156 6.648438 -6.53125 5.890625 -6.53125 Z M 9.894531 -9.234375 C 9.894531 -10.359375 9.464844 -11.332031 8.648438 -12.089844 C 7.851562 -12.828125 6.859375 -13.21875 5.695312 -13.21875 L 1.457031 -13.21875 L 1.457031 0 L 2.816406 0 L 2.816406 -5.226562 L 4.394531 -5.226562 L 8.28125 0 L 10.105469 0 L 6.027344 -5.226562 C 7.054688 -5.285156 7.929688 -5.65625 8.648438 -6.335938 C 9.464844 -7.09375 9.894531 -8.066406 9.894531 -9.234375 Z M 9.894531 -9.234375 "/></g></g></g><g fill="#000000" fill-opacity="1"><g transform="translate(170.95403, 130.082166)"><g><path d="M 11.019531 -4.375 L 11.019531 -13.21875 L 9.660156 -13.21875 L 9.660156 -4.179688 C 9.660156 -3.632812 9.5625 -3.1875 9.367188 -2.816406 C 8.804688 -1.730469 7.714844 -1.1875 6.101562 -1.1875 C 5.054688 -1.1875 4.21875 -1.417969 3.597656 -1.886719 C 2.875 -2.410156 2.527344 -3.167969 2.527344 -4.179688 L 2.527344 -13.21875 L 1.167969 -13.21875 L 1.167969 -4.375 C 1.167969 -2.933594 1.632812 -1.808594 2.566406 -0.992188 C 3.441406 -0.214844 4.625 0.175781 6.101562 0.175781 C 7.5625 0.175781 8.726562 -0.214844 9.621094 -0.992188 C 10.554688 -1.808594 11.019531 -2.933594 11.019531 -4.375 Z M 11.019531 -4.375 "/></g></g></g><g fill="#000000" fill-opacity="1"><g transform="translate(185.569219, 130.082166)"><g/></g></g><g fill="#000000" fill-opacity="1"><g transform="translate(193.24442, 130.082166)"><g><path d="M 11.546875 0 L 11.546875 -13.21875 L 8.628906 -13.21875 L 8.628906 -4.976562 L 4.082031 -13.21875 L 1.167969 -13.21875 L 1.167969 0 L 4.082031 0 L 4.082031 -8.242188 L 8.628906 0 Z M 11.546875 0 "/></g></g></g><g fill="#000000" fill-opacity="1"><g transform="translate(208.384306, 130.082166)"><g><path d="M 4.082031 0 L 4.082031 -13.21875 L 1.167969 -13.21875 L 1.167969 0 Z M 4.082031 0 "/></g></g></g><g fill="#000000" fill-opacity="1"><g transform="translate(216.06169, 130.082166)"><g><path d="M 6.785156 -10.574219 L 10.554688 -10.574219 L 10.554688 -13.21875 L 0.0976562 -13.21875 L 0.0976562 -10.574219 L 3.867188 -10.574219 L 3.867188 0 L 6.785156 0 Z M 6.785156 -10.574219 "/></g></g></g><g fill="#000000" fill-opacity="1"><g transform="translate(229.141621, 130.082166)"><g><path d="M 8.882812 -13.21875 L 8.882812 -5.578125 C 8.882812 -3.75 8.339844 -2.722656 6.335938 -2.722656 C 4.355469 -2.722656 3.789062 -3.75 3.789062 -5.578125 L 3.789062 -13.21875 L 0.875 -13.21875 L 0.875 -5.152344 C 0.875 -1.632812 2.894531 0.195312 6.335938 0.195312 C 9.777344 0.195312 11.796875 -1.632812 11.796875 -5.152344 L 11.796875 -13.21875 Z M 8.882812 -13.21875 "/></g></g></g><g fill="#000000" fill-opacity="1"><g transform="translate(244.242647, 130.082166)"><g><path d="M 8.824219 -2.644531 L 4.082031 -2.644531 L 4.082031 -5.304688 L 8.628906 -5.304688 L 8.628906 -7.949219 L 4.082031 -7.949219 L 4.082031 -10.574219 L 8.824219 -10.574219 L 8.824219 -13.21875 L 1.167969 -13.21875 L 1.167969 0 L 8.824219 0 Z M 8.824219 -2.644531 "/></g></g></g><g fill="#000000" fill-opacity="1"><g transform="translate(256.66184, 130.082166)"><g><path d="M 1.167969 0 L 8.824219 0 L 8.824219 -2.644531 L 4.082031 -2.644531 L 4.082031 -13.21875 L 1.167969 -13.21875 Z M 1.167969 0 "/></g></g></g><g fill="#000000" fill-opacity="1"><g transform="translate(268.595192, 130.082166)"><g><path d="M 6.296875 -2.058594 C 4.859375 -2.058594 3.617188 -2.78125 3.539062 -4.355469 L 0.582031 -4.355469 C 0.601562 -1.128906 3.265625 0.3125 6.179688 0.3125 C 8.882812 0.3125 11.664062 -0.835938 11.664062 -3.945312 C 11.664062 -8.980469 4.023438 -7.289062 4.023438 -9.640625 C 4.023438 -10.632812 5.171875 -11.019531 5.988281 -11.019531 C 7.445312 -11.019531 8.242188 -10.574219 8.398438 -9.195312 L 11.214844 -9.195312 C 11.117188 -12.207031 8.667969 -13.410156 5.949219 -13.410156 C 3.539062 -13.410156 1.011719 -12.128906 1.011719 -9.40625 C 1.011719 -4.527344 8.648438 -6.179688 8.648438 -3.617188 C 8.648438 -2.429688 7.210938 -2.058594 6.296875 -2.058594 Z M 6.296875 -2.058594 "/></g></g></g><g fill="#000000" fill-opacity="1"><g transform="translate(283.268677, 130.082166)"><g><path d="M 10.710938 -4.488281 C 10.164062 -3.324219 8.84375 -2.527344 7.484375 -2.527344 C 5.34375 -2.527344 3.632812 -4.355469 3.632812 -6.609375 C 3.632812 -8.84375 5.34375 -10.691406 7.484375 -10.691406 C 8.824219 -10.691406 10.144531 -9.953125 10.691406 -8.765625 L 13.9375 -8.765625 C 13.042969 -11.46875 10.496094 -13.410156 7.484375 -13.410156 C 3.730469 -13.410156 0.679688 -10.359375 0.679688 -6.609375 C 0.679688 -2.855469 3.730469 0.195312 7.484375 0.195312 C 10.496094 0.195312 13.0625 -1.769531 13.957031 -4.488281 Z M 10.710938 -4.488281 "/></g></g></g><g fill="#000000" fill-opacity="1"><g transform="translate(300.138157, 130.082166)"><g><path d="M 8.882812 -13.21875 L 8.882812 -5.578125 C 8.882812 -3.75 8.339844 -2.722656 6.335938 -2.722656 C 4.355469 -2.722656 3.789062 -3.75 3.789062 -5.578125 L 3.789062 -13.21875 L 0.875 -13.21875 L 0.875 -5.152344 C 0.875 -1.632812 2.894531 0.195312 6.335938 0.195312 C 9.777344 0.195312 11.796875 -1.632812 11.796875 -5.152344 L 11.796875 -13.21875 Z M 8.882812 -13.21875 "/></g></g></g></svg>